<svg height="30" viewBox="0 0 30 30" width="30" xmlns="http://www.w3.org/2000/svg"><path d="m23.56.436c-.58-.58-1.54-.58-2.12 0l-6.004 6.004c-.58.58-.58 1.54 0 2.12l6.004 6.005c.58.58 1.54.58 2.12 0l6.005-6.004c.58-.58.58-1.54 0-2.12zm-.706.708 6.003 6.003c.202.202.202.505 0 .707l-6.003 6.004c-.202.202-.505.202-.707 0l-6.004-6.004c-.202-.202-.202-.505 0-.707l6.004-6.003c.202-.202.505-.202.707 0zm-6.354 16.856c-.822 0-1.5.678-1.5 1.5v9c0 .822.678 1.5 1.5 1.5h9c.822 0 1.5-.678 1.5-1.5v-9c0-.822-.678-1.5-1.5-1.5zm0 1h9c.286 0 .5.214.5.5v9c0 .286-.214.5-.5.5h-9c-.286 0-.5-.214-.5-.5v-9c0-.286.214-.5.5-.5zm-15-16c-.822 0-1.5.678-1.5 1.5v9c0 .822.678 1.5 1.5 1.5h9c.822 0 1.5-.678 1.5-1.5v-9c0-.822-.678-1.5-1.5-1.5zm0 1h9c.286 0 .5.214.5.5v9c0 .286-.214.5-.5.5h-9c-.286 0-.5-.214-.5-.5v-9c0-.286.214-.5.5-.5zm0 14c-.822 0-1.5.678-1.5 1.5v9c0 .822.678 1.5 1.5 1.5h9c.822 0 1.5-.678 1.5-1.5v-9c0-.822-.678-1.5-1.5-1.5zm0 1h9c.286 0 .5.214.5.5v9c0 .286-.214.5-.5.5h-9c-.286 0-.5-.214-.5-.5v-9c0-.286.214-.5.5-.5z"/></svg>